HIERARCHY
ROOT mixamorig:Hips
{
	OFFSET 0.000000 201.639420 0.000000
	CHANNELS 6 Xposition Yposition Zposition Xrotation Yrotation Zrotation
	JOINT mixamorig:Spine
	{
		OFFSET 0.006200 19.524994 -2.481800
		CHANNELS 3 Xrotation Yrotation Zrotation
		JOINT mixamorig:Spine1
		{
			OFFSET -0.000900 22.835007 -2.825400
			CHANNELS 3 Xrotation Yrotation Zrotation
			JOINT mixamorig:Spine2
			{
				OFFSET -0.020600 26.552490 -3.193300
				CHANNELS 3 Xrotation Yrotation Zrotation
				JOINT mixamorig:Neck
				{
					OFFSET -0.060000 30.701813 1.352200
					CHANNELS 3 Xrotation Yrotation Zrotation
					JOINT mixamorig:Head
					{
						OFFSET -0.087200 22.547607 3.670900
						CHANNELS 3 Xrotation Yrotation Zrotation
						JOINT mixamorig:HeadTop_End
						{
							OFFSET -0.830600 40.355194 7.893500
							CHANNELS 3 Xrotation Yrotation Zrotation
							End Site
							{
								OFFSET 0.000000 30.592346 0.000000
							}
						}
						JOINT mixamorig:RightEye
						{
							OFFSET -6.302100 18.118591 16.197100
							CHANNELS 3 Xrotation Yrotation Zrotation
							End Site
							{
								OFFSET 0.000000 30.592346 0.000000
							}
						}
						JOINT mixamorig:LeftEye
						{
							OFFSET 6.741500 18.382690 16.401899
							CHANNELS 3 Xrotation Yrotation Zrotation
							End Site
							{
								OFFSET 0.000000 30.592346 0.000000
							}
						}
					}
				}
				JOINT mixamorig:LeftShoulder
				{
					OFFSET 11.924900 18.230499 1.425400
					CHANNELS 3 Xrotation Yrotation Zrotation
					JOINT mixamorig:LeftArm
					{
						OFFSET 25.435989 -0.697632 -5.229300
						CHANNELS 3 Xrotation Yrotation Zrotation
						JOINT mixamorig:LeftForeArm
						{
							OFFSET 54.684776 0.000000 0.000000
							CHANNELS 3 Xrotation Yrotation Zrotation
							JOINT mixamorig:LeftHand
							{
								OFFSET 55.098175 0.000000 0.000000
								CHANNELS 3 Xrotation Yrotation Zrotation
								JOINT mixamorig:LeftHandMiddle1
								{
									OFFSET 23.369751 0.000000 0.000000
									CHANNELS 3 Xrotation Yrotation Zrotation
									JOINT mixamorig:LeftHandMiddle2
									{
										OFFSET 6.378677 0.000000 0.000000
										CHANNELS 3 Xrotation Yrotation Zrotation
										JOINT mixamorig:LeftHandMiddle3
										{
											OFFSET 6.148331 0.000000 0.000000
											CHANNELS 3 Xrotation Yrotation Zrotation
											JOINT mixamorig:LeftHandMiddle4
											{
												OFFSET 6.582504 0.000000 0.000000
												CHANNELS 3 Xrotation Yrotation Zrotation
												End Site
												{
													OFFSET -1.168900 6.395691 1.028606
												}
											}
										}
									}
								}
								JOINT mixamorig:LeftHandThumb1
								{
									OFFSET 7.235672 -3.848206 5.434273
									CHANNELS 3 Xrotation Yrotation Zrotation
									JOINT mixamorig:LeftHandThumb2
									{
										OFFSET 6.568451 -3.792297 3.792300
										CHANNELS 3 Xrotation Yrotation Zrotation
										JOINT mixamorig:LeftHandThumb3
										{
											OFFSET 6.063080 -3.500519 3.500518
											CHANNELS 3 Xrotation Yrotation Zrotation
											JOINT mixamorig:LeftHandThumb4
											{
												OFFSET 4.793182 -2.767334 2.767349
												CHANNELS 3 Xrotation Yrotation Zrotation
												End Site
												{
													OFFSET 0.101639 6.054260 1.275483
												}
											}
										}
									}
								}
								JOINT mixamorig:LeftHandIndex1
								{
									OFFSET 23.101074 -0.309540 4.992809
									CHANNELS 3 Xrotation Yrotation Zrotation
									JOINT mixamorig:LeftHandIndex2
									{
										OFFSET 6.226883 0.000000 0.000000
										CHANNELS 3 Xrotation Yrotation Zrotation
										JOINT mixamorig:LeftHandIndex3
										{
											OFFSET 6.094330 0.000000 0.000000
											CHANNELS 3 Xrotation Yrotation Zrotation
											JOINT mixamorig:LeftHandIndex4
											{
												OFFSET 5.482605 0.000000 0.000000
												CHANNELS 3 Xrotation Yrotation Zrotation
												End Site
												{
													OFFSET -1.427902 5.233032 0.797164
												}
											}
										}
									}
								}
								JOINT mixamorig:LeftHandRing1
								{
									OFFSET 22.299240 0.021149 -3.964172
									CHANNELS 3 Xrotation Yrotation Zrotation
									JOINT mixamorig:LeftHandRing2
									{
										OFFSET 6.321869 0.000000 0.000000
										CHANNELS 3 Xrotation Yrotation Zrotation
										JOINT mixamorig:LeftHandRing3
										{
											OFFSET 5.899796 0.000000 0.000000
											CHANNELS 3 Xrotation Yrotation Zrotation
											JOINT mixamorig:LeftHandRing4
											{
												OFFSET 6.517899 0.000000 0.000000
												CHANNELS 3 Xrotation Yrotation Zrotation
												End Site
												{
													OFFSET -1.637299 6.232208 0.980890
												}
											}
										}
									}
								}
								JOINT mixamorig:LeftHandPinky1
								{
									OFFSET 20.463791 -0.302338 -8.562233
									CHANNELS 3 Xrotation Yrotation Zrotation
									JOINT mixamorig:LeftHandPinky2
									{
										OFFSET 6.908646 0.000000 0.000000
										CHANNELS 3 Xrotation Yrotation Zrotation
										JOINT mixamorig:LeftHandPinky3
										{
											OFFSET 4.622849 0.000000 0.000000
											CHANNELS 3 Xrotation Yrotation Zrotation
											JOINT mixamorig:LeftHandPinky4
											{
												OFFSET 5.216080 0.000000 0.000000
												CHANNELS 3 Xrotation Yrotation Zrotation
												End Site
												{
													OFFSET -0.606308 5.116241 0.814926
												}
											}
										}
									}
								}
							}
						}
					}
				}
				JOINT mixamorig:RightShoulder
				{
					OFFSET -12.001300 18.284088 1.348900
					CHANNELS 3 Xrotation Yrotation Zrotation
					JOINT mixamorig:RightArm
					{
						OFFSET -25.308500 -0.751312 -5.164599
						CHANNELS 3 Xrotation Yrotation Zrotation
						JOINT mixamorig:RightForeArm
						{
							OFFSET -54.684429 0.000000 0.000000
							CHANNELS 3 Xrotation Yrotation Zrotation
							JOINT mixamorig:RightHand
							{
								OFFSET -55.150291 0.000000 0.000000
								CHANNELS 3 Xrotation Yrotation Zrotation
								JOINT mixamorig:RightHandMiddle1
								{
									OFFSET -23.317566 0.000000 0.000000
									CHANNELS 3 Xrotation Yrotation Zrotation
									JOINT mixamorig:RightHandMiddle2
									{
										OFFSET -6.378403 0.000000 0.000000
										CHANNELS 3 Xrotation Yrotation Zrotation
										JOINT mixamorig:RightHandMiddle3
										{
											OFFSET -6.148193 0.000000 0.000000
											CHANNELS 3 Xrotation Yrotation Zrotation
											JOINT mixamorig:RightHandMiddle4
											{
												OFFSET -6.583389 0.000000 0.000000
												CHANNELS 3 Xrotation Yrotation Zrotation
												End Site
												{
													OFFSET 1.171692 6.395905 1.029786
												}
											}
										}
									}
								}
								JOINT mixamorig:RightHandThumb1
								{
									OFFSET -7.190521 -3.860474 5.435846
									CHANNELS 3 Xrotation Yrotation Zrotation
									JOINT mixamorig:RightHandThumb2
									{
										OFFSET -6.567429 -3.791718 3.791708
										CHANNELS 3 Xrotation Yrotation Zrotation
										JOINT mixamorig:RightHandThumb3
										{
											OFFSET -6.062469 -3.500153 3.500166
											CHANNELS 3 Xrotation Yrotation Zrotation
											JOINT mixamorig:RightHandThumb4
											{
												OFFSET -4.792618 -2.767029 2.767022
												CHANNELS 3 Xrotation Yrotation Zrotation
												End Site
												{
													OFFSET -0.100327 6.053253 1.276754
												}
											}
										}
									}
								}
								JOINT mixamorig:RightHandIndex1
								{
									OFFSET -23.048981 -0.310791 4.992554
									CHANNELS 3 Xrotation Yrotation Zrotation
									JOINT mixamorig:RightHandIndex2
									{
										OFFSET -6.227539 0.000000 0.000000
										CHANNELS 3 Xrotation Yrotation Zrotation
										JOINT mixamorig:RightHandIndex3
										{
											OFFSET -6.095047 0.000000 0.000000
											CHANNELS 3 Xrotation Yrotation Zrotation
											JOINT mixamorig:RightHandIndex4
											{
												OFFSET -5.484772 0.000000 0.000000
												CHANNELS 3 Xrotation Yrotation Zrotation
												End Site
												{
													OFFSET 1.420593 5.237305 0.797056
												}
											}
										}
									}
								}
								JOINT mixamorig:RightHandRing1
								{
									OFFSET -22.246323 0.020569 -3.963762
									CHANNELS 3 Xrotation Yrotation Zrotation
									JOINT mixamorig:RightHandRing2
									{
										OFFSET -6.322128 0.000000 0.000000
										CHANNELS 3 Xrotation Yrotation Zrotation
										JOINT mixamorig:RightHandRing3
										{
											OFFSET -5.900024 0.000000 0.000000
											CHANNELS 3 Xrotation Yrotation Zrotation
											JOINT mixamorig:RightHandRing4
											{
												OFFSET -6.518356 0.000000 0.000000
												CHANNELS 3 Xrotation Yrotation Zrotation
												End Site
												{
													OFFSET 1.636398 6.232697 0.982186
												}
											}
										}
									}
								}
								JOINT mixamorig:RightHandPinky1
								{
									OFFSET -20.411011 -0.303314 -8.561701
									CHANNELS 3 Xrotation Yrotation Zrotation
									JOINT mixamorig:RightHandPinky2
									{
										OFFSET -6.907349 0.000000 0.000000
										CHANNELS 3 Xrotation Yrotation Zrotation
										JOINT mixamorig:RightHandPinky3
										{
											OFFSET -4.623840 0.000000 0.000000
											CHANNELS 3 Xrotation Yrotation Zrotation
											JOINT mixamorig:RightHandPinky4
											{
												OFFSET -5.218353 0.000000 0.000000
												CHANNELS 3 Xrotation Yrotation Zrotation
												End Site
												{
													OFFSET 0.602097 5.118835 0.816273
												}
											}
										}
									}
								}
							}
						}
					}
				}
			}
		}
	}
	JOINT mixamorig:LeftUpLeg
	{
		OFFSET 18.168400 -13.561905 -0.039000
		CHANNELS 3 Xrotation Yrotation Zrotation
		JOINT mixamorig:LeftLeg
		{
			OFFSET 0.577358 -80.825211 -3.695000
			CHANNELS 3 Xrotation Yrotation Zrotation
			JOINT mixamorig:LeftFoot
			{
				OFFSET -0.577356 -83.370262 -6.520700
				CHANNELS 3 Xrotation Yrotation Zrotation
				JOINT mixamorig:LeftToeBase
				{
					OFFSET 0.750401 -20.798306 25.135401
					CHANNELS 3 Xrotation Yrotation Zrotation
					JOINT mixamorig:LeftToe_End
					{
						OFFSET -0.000500 0.001200 19.917799
						CHANNELS 3 Xrotation Yrotation Zrotation
						End Site
						{
							OFFSET 0.000000 19.917805 0.000000
						}
					}
				}
			}
		}
	}
	JOINT mixamorig:RightUpLeg
	{
		OFFSET -18.162500 -13.585098 -0.041000
		CHANNELS 3 Xrotation Yrotation Zrotation
		JOINT mixamorig:RightLeg
		{
			OFFSET -0.595024 -80.945297 -3.631900
			CHANNELS 3 Xrotation Yrotation Zrotation
			JOINT mixamorig:RightFoot
			{
				OFFSET 0.595024 -83.218193 -6.561200
				CHANNELS 3 Xrotation Yrotation Zrotation
				JOINT mixamorig:RightToeBase
				{
					OFFSET -0.753601 -20.807106 25.115000
					CHANNELS 3 Xrotation Yrotation Zrotation
					JOINT mixamorig:RightToe_End
					{
						OFFSET 0.000299 0.001700 19.918200
						CHANNELS 3 Xrotation Yrotation Zrotation
						End Site
						{
							OFFSET 0.000000 19.918203 0.000000
						}
					}
				}
			}
		}
	}
}
MOTION
Frames: 4
Frame Time: 0.033333
1.235658 200.212830 0.495561 -4.193119 -3.849236 -3.601529 3.104277 1.639941 2.452714 0.799899 0.526988 1.476487 0.773545 0.551585 1.480926 6.399115 -2.890849 1.580280 -4.904054 -13.087202 0.362150 0.000000 -0.000001 0.000000 0.000000 -0.000001 0.000000 0.000000 -0.000001 0.000000 1.021685 -17.263069 -12.501839 4.444165 -19.451638 -69.970555 0.000002 -1.282629 -0.000000 -33.485825 -1.373036 -6.252844 -0.073873 2.676604 -15.721289 0.268668 1.755428 -17.401708 0.300400 1.853603 -18.409479 0.000001 -0.000001 -0.000003 -0.688885 2.123852 4.841575 11.812403 25.394008 17.065456 -13.817770 3.521409 9.032013 -0.000001 -0.000001 0.000001 0.085668 -1.006275 -7.650935 0.267719 1.752409 -17.370701 0.057601 0.820386 -8.032437 -0.000001 -0.000001 -0.000001 0.134140 3.635311 -21.149607 0.387665 2.097516 -20.940404 0.283964 1.803488 -17.894336 0.000001 0.000001 0.000002 0.908511 5.548066 -27.124104 0.268530 1.755001 -17.397315 0.241666 1.666887 -16.497543 -0.000003 0.000000 0.000000 1.175056 15.314596 14.852724 13.208603 26.587179 57.846723 0.000003 6.519286 -0.000013 -19.875255 0.392911 4.930615 -0.136227 -2.205107 14.998885 0.214454 -1.398355 17.436870 0.239773 -1.476522 18.446282 0.000001 0.000002 -0.000002 -1.665253 -0.174475 -4.219002 12.710944 -29.825329 -16.130950 -15.549424 -3.559402 -12.707138 -0.000005 0.000002 -0.000002 0.038552 1.262293 6.823732 0.213728 -1.396023 17.407044 0.046023 -0.653846 8.053237 -0.000000 -0.000000 -0.000003 0.030606 -3.075760 20.451039 0.308444 -1.668279 20.948535 0.225824 -1.434040 17.897093 0.000000 0.000001 0.000000 0.748874 -4.885243 26.473776 0.214451 -1.398375 17.437237 0.193012 -1.328184 16.535809 -0.000002 0.000002 0.000003 -12.986913 14.368409 10.728136 14.140803 0.706488 4.218525 1.683504 0.436747 -7.276983 -5.110161 0.000003 0.000001 0.000000 -0.000000 0.000000 0.804927 -10.497599 3.165061 5.769353 -9.890490 -3.580871 -1.755175 -2.560901 3.387568 -7.375238 0.000002 -0.000000 -0.000001 0.000000 -0.000000 
1.286489 200.207474 0.460882 -4.125988 -3.974215 -3.554116 3.118500 1.627233 2.465875 0.823597 0.502632 1.505929 0.797262 0.526814 1.510064 6.448232 -2.644125 1.702515 -4.796482 -11.912393 0.985300 -0.000000 -0.000001 -0.000000 -0.000000 -0.000001 -0.000000 -0.000000 -0.000001 -0.000000 1.028364 -17.341365 -12.467739 4.506897 -19.435834 -69.963752 -0.000002 -1.291538 -0.000000 -33.488674 -1.320227 -6.277043 -0.074610 2.671487 -15.692476 0.269213 1.757184 -17.419648 0.300985 1.855349 -18.427453 -0.000000 -0.000000 -0.000005 -0.702905 2.099773 4.834989 11.810238 25.393549 17.065902 -13.818603 3.517955 9.031153 0.000000 -0.000001 -0.000000 0.089316 -1.016405 -7.602620 0.268076 1.753542 -17.382389 0.057765 0.821553 -8.043919 -0.000000 0.000000 0.000001 0.133154 3.630825 -21.105307 0.387836 2.097969 -20.945122 0.284144 1.804045 -17.900049 -0.000002 0.000000 0.000006 0.899518 5.529172 -27.119949 0.268500 1.754897 -17.396190 0.241633 1.666776 -16.496427 -0.000001 -0.000001 0.000003 1.173894 15.286877 14.860700 12.463028 25.668981 58.278254 -0.000009 6.226120 -0.000001 -19.659977 0.004254 5.103362 -0.136223 -2.205107 14.998884 0.214450 -1.398356 17.436872 0.239773 -1.476521 18.446282 -0.000004 -0.000002 0.000003 -1.665248 -0.174475 -4.219004 12.710947 -29.825326 -16.130952 -15.549423 -3.559397 -12.707138 -0.000002 0.000001 -0.000000 0.038557 1.262293 6.823731 0.213725 -1.396020 17.407039 0.046023 -0.653846 8.053237 0.000001 -0.000001 -0.000001 0.030606 -3.075760 20.451038 0.308434 -1.668278 20.948535 0.225824 -1.434041 17.897092 0.000001 -0.000000 0.000002 0.748875 -4.885242 26.473779 0.214458 -1.398379 17.437241 0.193011 -1.328186 16.535820 -0.000001 -0.000001 -0.000001 -13.023996 14.350115 10.675370 14.135407 0.852974 4.190657 1.672882 0.439628 -7.264920 -5.111327 0.000002 -0.000003 0.000000 0.000001 0.000000 0.548172 -10.512737 3.039227 6.057391 -9.775384 -3.531979 -1.858235 -2.546730 3.393095 -7.377073 0.000005 0.000001 -0.000000 0.000002 0.000000 
1.312376 200.203003 0.440428 -4.062611 -4.111217 -3.518570 3.131475 1.619866 2.482296 0.846655 0.487517 1.538495 0.820310 0.511216 1.542434 6.464072 -2.174795 1.795841 -4.904270 -9.696672 1.870757 0.000000 0.000000 -0.000000 0.000000 0.000000 -0.000000 0.000000 0.000000 -0.000000 1.033655 -17.393538 -12.435275 4.547667 -19.449372 -69.950167 -0.000002 -1.268812 0.000001 -33.388690 -1.209376 -6.335105 -0.075424 2.667528 -15.680340 0.269257 1.757309 -17.420968 0.301024 1.855473 -18.428776 -0.000001 0.000000 -0.000003 -0.711306 2.091726 4.812900 11.806765 25.404556 17.068527 -13.819302 3.515141 9.030483 0.000000 0.000002 0.000001 0.089323 -1.008653 -7.583440 0.267827 1.752746 -17.374275 0.057649 0.820751 -8.036015 0.000000 0.000000 -0.000003 0.132597 3.628280 -21.079939 0.387081 2.095989 -20.924447 0.283482 1.802001 -17.879081 -0.000000 0.000001 0.000003 0.899591 5.528181 -27.101902 0.268809 1.755885 -17.406319 0.241929 1.667771 -16.506518 -0.000002 -0.000001 -0.000003 1.173266 15.314245 14.863345 11.906487 24.860613 58.632345 -0.000002 5.954771 -0.000016 -19.673004 -0.261122 5.221079 -0.136221 -2.205107 14.998884 0.214450 -1.398355 17.436874 0.239774 -1.476521 18.446278 -0.000001 -0.000001 0.000001 -1.665247 -0.174475 -4.219004 12.710932 -29.825326 -16.130952 -15.549426 -3.559400 -12.707137 0.000004 -0.000000 0.000001 0.038559 1.262294 6.823729 0.213721 -1.396020 17.407039 0.046017 -0.653845 8.053235 -0.000000 -0.000000 0.000000 0.030604 -3.075761 20.451034 0.308441 -1.668279 20.948537 0.225822 -1.434041 17.897095 -0.000000 -0.000000 0.000001 0.748879 -4.885243 26.473776 0.214458 -1.398378 17.437242 0.193014 -1.328189 16.535811 -0.000000 -0.000001 0.000000 -13.057529 14.329281 10.634744 14.133862 1.011392 4.178082 1.660015 0.441814 -7.249498 -5.111580 -0.000007 -0.000000 -0.000000 0.000001 0.000000 0.332290 -10.518886 2.940455 6.287421 -9.662930 -3.486041 -1.940843 -2.529505 3.388530 -7.378456 0.000006 0.000001 -0.000000 0.000001 0.000000 
1.311048 200.201080 0.437795 -4.007183 -4.239448 -3.494210 3.142435 1.616534 2.498362 0.866585 0.480394 1.567701 0.840210 0.503681 1.571550 6.474573 -1.602415 1.868548 -5.169848 -6.994210 2.844423 -0.000000 0.000000 -0.000000 -0.000000 0.000000 -0.000000 -0.000000 0.000000 -0.000000 1.033349 -17.418640 -12.420850 4.563227 -19.440843 -69.923700 -0.000001 -1.241218 -0.000002 -33.272283 -1.131063 -6.372098 -0.076497 2.665027 -15.695780 0.268919 1.756231 -17.409952 0.300669 1.854406 -18.417720 -0.000002 0.000001 0.000003 -0.712250 2.103979 4.798905 11.808018 25.390318 17.066100 -13.819752 3.513194 9.029957 0.000001 0.000001 0.000003 0.056228 -1.045158 -7.761662 0.268165 1.753821 -17.385246 0.057791 0.821737 -8.045772 -0.000001 0.000000 -0.000002 0.133685 3.632310 -21.107834 0.386944 2.095635 -20.920717 0.283360 1.801616 -17.875107 -0.000000 -0.000001 -0.000001 0.902990 5.533361 -27.098180 0.269039 1.756617 -17.413847 0.242146 1.668507 -16.514064 -0.000001 -0.000000 -0.000002 1.170916 15.354837 14.867558 11.621086 24.273312 58.857673 0.000002 5.745566 0.000017 -19.675627 -0.426355 5.241645 -0.136225 -2.205107 14.998884 0.214446 -1.398355 17.436870 0.239769 -1.476518 18.446283 0.000001 0.000000 -0.000000 -1.665255 -0.174474 -4.219006 12.710944 -29.825326 -16.130953 -15.549419 -3.559400 -12.707143 -0.000002 0.000001 0.000001 0.038557 1.262294 6.823729 0.213724 -1.396022 17.407043 0.046022 -0.653846 8.053236 -0.000000 -0.000000 0.000001 0.030604 -3.075761 20.451039 0.308441 -1.668278 20.948539 0.225822 -1.434041 17.897093 -0.000001 0.000001 0.000005 0.748881 -4.885242 26.473779 0.214457 -1.398379 17.437242 0.193008 -1.328184 16.535813 0.000002 -0.000000 -0.000002 -13.085813 14.306761 10.607215 14.136047 1.161208 4.176781 1.648970 0.443304 -7.230715 -5.110736 0.000002 0.000000 -0.000000 0.000001 0.000000 0.175127 -10.521686 2.875470 6.441624 -9.564030 -3.449692 -1.998502 -2.512925 3.376162 -7.379216 -0.000000 0.000001 -0.000000 0.000000 0.000000 
